#N canvas 675 1012 1920 956 12;
#X obj 92 681 bng 19 250 50 0 empty empty empty 0 -10 0 12 #fcfcfc #000000 #000000;
#X obj 243 688 bng 19 250 50 0 empty empty empty 0 -10 0 12 #fcfcfc #000000 #000000;
#X obj 248 1065 noteout 1;
#X obj 424 686 bng 19 250 50 0 empty empty empty 0 -10 0 12 #fcfcfc #000000 #000000;
#X obj 428 1111 noteout 1;
#X obj 867 686 bng 19 250 50 0 empty empty empty 0 -10 0 12 #fcfcfc #000000 #000000;
#X obj 872 1089 noteout 1;
#X obj 92 1045 noteout 1;
#X obj 90 999 spigot;
#X obj 170 994 tgl 19 0 empty empty empty 0 -10 0 12 #fcfcfc #000000 #000000 0 1;
#X obj 240 1019 spigot;
#X obj 320 1014 tgl 19 0 empty empty empty 0 -10 0 12 #fcfcfc #000000 #000000 0 1;
#X obj 415 1051 spigot;
#X obj 495 1046 tgl 19 0 empty empty empty 0 -10 0 12 #fcfcfc #000000 #000000 0 1;
#X obj 856 1050 spigot;
#X obj 936 1045 tgl 19 0 empty empty empty 0 -10 0 12 #fcfcfc #000000 #000000 0 1;
#X obj 243 976 makenote 80 1;
#X obj 424 1013 makenote 80 1;
#X obj 867 1011 makenote 80 1;
#X obj 359 130 f;
#X obj 411 131 + 1;
#X obj 359 50 tgl 19 0 empty empty empty 0 -10 0 12 #fcfcfc #000000 #000000 0 1;
#X msg 92 736 69;
#X msg 243 735 62;
#X msg 424 737 65;
#X msg 867 749 67;
#X obj 1015 686 bng 19 250 50 0 empty empty empty 0 -10 0 12 #fcfcfc #000000 #000000;
#X obj 1020 1081 noteout 1;
#X obj 1004 1042 spigot;
#X obj 1084 1037 tgl 19 0 empty empty empty 0 -10 0 12 #fcfcfc #000000 #000000 0 1;
#X obj 1015 1003 makenote 80 1;
#X msg 1015 747 64;
#X floatatom 359 211 5 0 0 0 - - - 0;
#X text 131 732 LA;
#X text 288 734 RE, f 5;
#X text 468 737 FA;
#X text 907 752 SOL;
#X text 1053 748 MI;
#X obj 1150 679 bng 19 250 50 0 empty empty empty 0 -10 0 12 #fcfcfc #000000 #000000;
#X obj 1155 1082 noteout 1;
#X obj 1139 1043 spigot;
#X obj 1219 1038 tgl 19 0 empty empty empty 0 -10 0 12 #fcfcfc #000000 #000000 0 1;
#X obj 1150 1004 makenote 80 1;
#X msg 1150 742 60;
#X text 1188 743 DO;
#X obj 92 956 makenote 80 1;
#X obj 544 951 netsend -u -b;
#X msg 626 852 disconnect;
#X floatatom 544 990 5 0 0 0 - - - 0;
#X msg 544 821 connect localhost 11111;
#X obj 723 808 pack f;
#X obj 723 932 oscformat /notes;
#X obj 361 90 metro 500;
#X obj 357 258 sel 0 2 4 5 6 8 10 11 12 15 17 19 20 21 23 25 26 27 28 29 30;
#X obj 359 176 % 30;
#X connect 0 0 22 0;
#X connect 1 0 23 0;
#X connect 3 0 24 0;
#X connect 5 0 25 0;
#X connect 8 0 7 0;
#X connect 8 0 7 1;
#X connect 9 0 8 1;
#X connect 10 0 2 0;
#X connect 10 0 2 1;
#X connect 11 0 10 1;
#X connect 12 0 4 0;
#X connect 12 0 4 1;
#X connect 13 0 12 1;
#X connect 14 0 6 0;
#X connect 14 0 6 1;
#X connect 15 0 14 1;
#X connect 16 0 10 0;
#X connect 17 0 12 0;
#X connect 18 0 14 0;
#X connect 19 0 20 0;
#X connect 19 0 54 0;
#X connect 20 0 19 1;
#X connect 21 0 52 0;
#X connect 22 0 45 0;
#X connect 22 0 50 0;
#X connect 23 0 16 0;
#X connect 23 0 50 0;
#X connect 24 0 17 0;
#X connect 24 0 50 0;
#X connect 25 0 18 0;
#X connect 25 0 50 0;
#X connect 26 0 31 0;
#X connect 28 0 27 0;
#X connect 28 0 27 1;
#X connect 29 0 28 1;
#X connect 30 0 28 0;
#X connect 31 0 30 0;
#X connect 31 0 50 0;
#X connect 32 0 53 0;
#X connect 38 0 43 0;
#X connect 40 0 39 0;
#X connect 40 0 39 1;
#X connect 41 0 40 1;
#X connect 42 0 40 0;
#X connect 43 0 42 0;
#X connect 43 0 50 0;
#X connect 45 0 8 0;
#X connect 46 0 48 0;
#X connect 47 0 46 0;
#X connect 49 0 46 0;
#X connect 50 0 51 0;
#X connect 51 0 46 0;
#X connect 52 0 19 0;
#X connect 53 0 0 0;
#X connect 53 1 1 0;
#X connect 53 2 3 0;
#X connect 53 3 5 0;
#X connect 53 4 0 0;
#X connect 53 5 1 0;
#X connect 53 6 3 0;
#X connect 53 7 5 0;
#X connect 53 8 26 0;
#X connect 53 9 5 0;
#X connect 53 10 38 0;
#X connect 53 11 3 0;
#X connect 53 12 26 0;
#X connect 53 13 5 0;
#X connect 53 14 38 0;
#X connect 53 15 3 0;
#X connect 53 16 26 0;
#X connect 53 17 1 0;
#X connect 54 0 32 0;
