#N canvas 990 343 1920 956 12;
#X obj 299 334 dac~;
#X obj 301 281 *~ 1;
#X obj 416 244 tgl 19 0 empty empty empty 0 -10 0 12 #fcfcfc #000000 #000000 0 1;
#X obj 305 230 osc~ 293.66;
#X connect 1 0 0 0;
#X connect 1 0 0 1;
#X connect 2 0 1 1;
#X connect 3 0 1 0;
