#N canvas 675 -8 1366 685 12;
#X obj 114 371 bng 19 250 50 0 empty empty empty 0 -10 0 12 #fcfcfc #000000 #000000;
#X obj 265 378 bng 19 250 50 0 empty empty empty 0 -10 0 12 #fcfcfc #000000 #000000;
#X obj 270 755 noteout 1;
#X obj 446 376 bng 19 250 50 0 empty empty empty 0 -10 0 12 #fcfcfc #000000 #000000;
#X obj 450 801 noteout 1;
#X obj 889 376 bng 19 250 50 0 empty empty empty 0 -10 0 12 #fcfcfc #000000 #000000;
#X obj 894 779 noteout 1;
#X obj 114 735 noteout 1;
#X obj 112 689 spigot;
#X obj 192 684 tgl 19 0 empty empty empty 0 -10 0 12 #fcfcfc #000000 #000000 0 1;
#X obj 262 709 spigot;
#X obj 342 704 tgl 19 0 empty empty empty 0 -10 0 12 #fcfcfc #000000 #000000 0 1;
#X obj 437 741 spigot;
#X obj 517 736 tgl 19 0 empty empty empty 0 -10 0 12 #fcfcfc #000000 #000000 0 1;
#X obj 878 740 spigot;
#X obj 958 735 tgl 19 0 empty empty empty 0 -10 0 12 #fcfcfc #000000 #000000 0 1;
#X obj 265 666 makenote 80 1;
#X obj 446 703 makenote 80 1;
#X obj 889 701 makenote 80 1;
#X obj 359 130 f;
#X obj 411 131 + 1;
#X obj 359 50 tgl 19 0 empty empty empty 0 -10 0 12 #fcfcfc #000000 #000000 0 1;
#X msg 114 426 69;
#X msg 265 425 62;
#X msg 446 427 65;
#X msg 889 439 67;
#X obj 1037 376 bng 19 250 50 0 empty empty empty 0 -10 0 12 #fcfcfc #000000 #000000;
#X obj 1042 771 noteout 1;
#X obj 1026 732 spigot;
#X obj 1106 727 tgl 19 0 empty empty empty 0 -10 0 12 #fcfcfc #000000 #000000 0 1;
#X obj 1037 693 makenote 80 1;
#X msg 1037 437 64;
#X floatatom 359 211 5 0 0 0 - - - 0;
#X text 153 422 LA;
#X text 310 424 RE, f 5;
#X text 490 427 FA;
#X text 929 442 SOL;
#X text 1075 438 MI;
#X obj 1172 369 bng 19 250 50 0 empty empty empty 0 -10 0 12 #fcfcfc #000000 #000000;
#X obj 1177 772 noteout 1;
#X obj 1161 733 spigot;
#X obj 1241 728 tgl 19 0 empty empty empty 0 -10 0 12 #fcfcfc #000000 #000000 0 1;
#X obj 1172 694 makenote 80 1;
#X msg 1172 432 60;
#X text 1210 433 DO;
#X obj 114 646 makenote 80 1;
#X obj 359 258 sel 0 1 2 3 4 5 6 7 8 9 10 11 12 13 14 15 16 17;
#X obj 359 176 % 17;
#X obj 359 90 metro 400;
#X obj 566 641 netsend -u -b;
#X msg 648 542 disconnect;
#X floatatom 566 680 5 0 0 0 - - - 0;
#X msg 566 511 connect localhost 11111;
#X obj 745 498 pack f;
#X obj 745 622 oscformat /notes;
#X connect 0 0 22 0;
#X connect 1 0 23 0;
#X connect 3 0 24 0;
#X connect 5 0 25 0;
#X connect 8 0 7 0;
#X connect 8 0 7 1;
#X connect 9 0 8 1;
#X connect 10 0 2 0;
#X connect 10 0 2 1;
#X connect 11 0 10 1;
#X connect 12 0 4 0;
#X connect 12 0 4 1;
#X connect 13 0 12 1;
#X connect 14 0 6 0;
#X connect 14 0 6 1;
#X connect 15 0 14 1;
#X connect 16 0 10 0;
#X connect 17 0 12 0;
#X connect 18 0 14 0;
#X connect 19 0 20 0;
#X connect 19 0 47 0;
#X connect 20 0 19 1;
#X connect 21 0 48 0;
#X connect 22 0 45 0;
#X connect 22 0 53 0;
#X connect 23 0 16 0;
#X connect 23 0 53 0;
#X connect 24 0 17 0;
#X connect 24 0 53 0;
#X connect 25 0 18 0;
#X connect 25 0 53 0;
#X connect 26 0 31 0;
#X connect 28 0 27 0;
#X connect 28 0 27 1;
#X connect 29 0 28 1;
#X connect 30 0 28 0;
#X connect 31 0 30 0;
#X connect 31 0 53 0;
#X connect 32 0 46 0;
#X connect 38 0 43 0;
#X connect 40 0 39 0;
#X connect 40 0 39 1;
#X connect 41 0 40 1;
#X connect 42 0 40 0;
#X connect 43 0 42 0;
#X connect 43 0 53 0;
#X connect 45 0 8 0;
#X connect 46 0 0 0;
#X connect 46 1 1 0;
#X connect 46 2 3 0;
#X connect 46 3 5 0;
#X connect 46 4 0 0;
#X connect 46 5 1 0;
#X connect 46 6 3 0;
#X connect 46 7 5 0;
#X connect 46 8 26 0;
#X connect 46 9 5 0;
#X connect 46 10 38 0;
#X connect 46 11 3 0;
#X connect 46 12 26 0;
#X connect 46 13 5 0;
#X connect 46 14 38 0;
#X connect 46 15 3 0;
#X connect 46 16 26 0;
#X connect 46 17 1 0;
#X connect 47 0 32 0;
#X connect 48 0 19 0;
#X connect 49 0 51 0;
#X connect 50 0 49 0;
#X connect 52 0 49 0;
#X connect 53 0 54 0;
#X connect 54 0 49 0;
