#N canvas 101 29 1920 956 12;
#X obj 92 681 bng 19 250 50 0 empty empty empty 0 -10 0 12 #fcfcfc #000000 #000000;
#X obj 243 688 bng 19 250 50 0 empty empty empty 0 -10 0 12 #fcfcfc #000000 #000000;
#X obj 248 1065 noteout 1;
#X obj 424 686 bng 19 250 50 0 empty empty empty 0 -10 0 12 #fcfcfc #000000 #000000;
#X obj 428 1111 noteout 1;
#X obj 867 686 bng 19 250 50 0 empty empty empty 0 -10 0 12 #fcfcfc #000000 #000000;
#X obj 872 1089 noteout 1;
#X obj 92 1045 noteout 1;
#X obj 90 999 spigot;
#X obj 170 994 tgl 19 0 empty empty empty 0 -10 0 12 #fcfcfc #000000 #000000 0 1;
#X obj 240 1019 spigot;
#X obj 320 1014 tgl 19 0 empty empty empty 0 -10 0 12 #fcfcfc #000000 #000000 0 1;
#X obj 415 1051 spigot;
#X obj 495 1046 tgl 19 0 empty empty empty 0 -10 0 12 #fcfcfc #000000 #000000 0 1;
#X obj 856 1050 spigot;
#X obj 936 1045 tgl 19 0 empty empty empty 0 -10 0 12 #fcfcfc #000000 #000000 0 1;
#X obj 243 976 makenote 80 1;
#X obj 424 1013 makenote 80 1;
#X obj 867 1011 makenote 80 1;
#X obj 697 133 f;
#X obj 749 134 + 1;
#X obj 702 46 tgl 19 0 empty empty empty 0 -10 0 12 #fcfcfc #000000 #000000 0 1;
#X obj 1015 686 bng 19 250 50 0 empty empty empty 0 -10 0 12 #fcfcfc #000000 #000000;
#X obj 1020 1081 noteout 1;
#X obj 1004 1042 spigot;
#X obj 1084 1037 tgl 19 0 empty empty empty 0 -10 0 12 #fcfcfc #000000 #000000 0 1;
#X obj 1015 1003 makenote 80 1;
#X floatatom 697 214 5 0 0 0 - - - 0;
#X obj 1150 679 bng 19 250 50 0 empty empty empty 0 -10 0 12 #fcfcfc #000000 #000000;
#X obj 1155 1082 noteout 1;
#X obj 1139 1043 spigot;
#X obj 1219 1038 tgl 19 0 empty empty empty 0 -10 0 12 #fcfcfc #000000 #000000 0 1;
#X obj 1150 1004 makenote 80 1;
#X obj 92 956 makenote 80 1;
#X obj 544 951 netsend -u -b;
#X msg 626 852 disconnect;
#X floatatom 544 990 5 0 0 0 - - - 0;
#X msg 544 821 connect localhost 11111;
#X obj 723 808 pack f;
#X obj 723 932 oscformat /notes;
#X obj 960 223 pgmout;
#X obj 1001 184 1;
#X floatatom 909 168 5 0 0 0 - - - 0;
#X obj 967 107 hradio 10 1 0 127 empty empty empty 0 -10 0 12 #fcfcfc #000000 #000000 0;
#X msg 92 736 65;
#X msg 241 735 74;
#X msg 424 737 63;
#X msg 867 749 78;
#X text 131 732 SOL#;
#X text 288 734 SI, f 5;
#X text 468 737 RE#;
#X msg 1015 747 73;
#X msg 1150 742 82;
#X obj 1284 674 bng 19 250 50 0 empty empty empty 0 -10 0 12 #fcfcfc #000000 #000000;
#X obj 1289 1077 noteout 1;
#X obj 1273 1038 spigot;
#X obj 1353 1033 tgl 19 0 empty empty empty 0 -10 0 12 #fcfcfc #000000 #000000 0 1;
#X obj 1284 999 makenote 80 1;
#X obj 1405 669 bng 19 250 50 0 empty empty empty 0 -10 0 12 #fcfcfc #000000 #000000;
#X obj 1410 1072 noteout 1;
#X obj 1394 1033 spigot;
#X obj 1474 1028 tgl 19 0 empty empty empty 0 -10 0 12 #fcfcfc #000000 #000000 0 1;
#X obj 1405 994 makenote 80 1;
#X msg 1284 737 68;
#X msg 1405 732 86;
#X text 907 752 FA#;
#X text 1053 748 do#;
#X text 1188 743 MI#;
#X text 1322 738 SOL;
#X text 1443 733 SI;
#X obj 347 335 sel 0 1 2 3 4 5 6 7 8 9 10 11 12 13 14 15 16 17 20 21 22 23 24 25 26 27 28 29 30 31 32 33 34 35 37, f 101;
#X obj 697 179 % 37;
#X obj 699 93 metro 200;
#X connect 0 0 44 0;
#X connect 1 0 45 0;
#X connect 3 0 46 0;
#X connect 5 0 47 0;
#X connect 8 0 7 0;
#X connect 8 0 7 1;
#X connect 9 0 8 1;
#X connect 10 0 2 0;
#X connect 10 0 2 1;
#X connect 11 0 10 1;
#X connect 12 0 4 0;
#X connect 12 0 4 1;
#X connect 13 0 12 1;
#X connect 14 0 6 0;
#X connect 14 0 6 1;
#X connect 15 0 14 1;
#X connect 16 0 10 0;
#X connect 17 0 12 0;
#X connect 18 0 14 0;
#X connect 19 0 20 0;
#X connect 19 0 71 0;
#X connect 20 0 19 1;
#X connect 21 0 72 0;
#X connect 22 0 51 0;
#X connect 24 0 23 0;
#X connect 24 0 23 1;
#X connect 25 0 24 1;
#X connect 26 0 24 0;
#X connect 27 0 70 0;
#X connect 28 0 52 0;
#X connect 30 0 29 0;
#X connect 30 0 29 1;
#X connect 31 0 30 1;
#X connect 32 0 30 0;
#X connect 33 0 8 0;
#X connect 34 0 36 0;
#X connect 35 0 34 0;
#X connect 37 0 34 0;
#X connect 38 0 39 0;
#X connect 39 0 34 0;
#X connect 41 0 40 1;
#X connect 43 0 40 0;
#X connect 43 0 42 0;
#X connect 44 0 33 0;
#X connect 44 0 38 0;
#X connect 45 0 16 0;
#X connect 45 0 38 0;
#X connect 46 0 17 0;
#X connect 46 0 38 0;
#X connect 47 0 18 0;
#X connect 47 0 38 0;
#X connect 51 0 26 0;
#X connect 51 0 38 0;
#X connect 52 0 32 0;
#X connect 52 0 38 0;
#X connect 53 0 63 0;
#X connect 55 0 54 0;
#X connect 55 0 54 1;
#X connect 56 0 55 1;
#X connect 57 0 55 0;
#X connect 58 0 64 0;
#X connect 60 0 59 0;
#X connect 60 0 59 1;
#X connect 61 0 60 1;
#X connect 62 0 60 0;
#X connect 63 0 57 0;
#X connect 63 0 38 0;
#X connect 64 0 62 0;
#X connect 64 0 38 0;
#X connect 70 0 0 0;
#X connect 70 1 1 0;
#X connect 70 2 3 0;
#X connect 70 3 5 0;
#X connect 70 4 0 0;
#X connect 70 5 1 0;
#X connect 70 6 3 0;
#X connect 70 7 0 0;
#X connect 70 8 1 0;
#X connect 70 9 3 0;
#X connect 70 10 5 0;
#X connect 70 11 0 0;
#X connect 70 12 1 0;
#X connect 70 13 3 0;
#X connect 70 14 5 0;
#X connect 70 15 0 0;
#X connect 70 16 1 0;
#X connect 70 17 3 0;
#X connect 70 18 22 0;
#X connect 70 19 28 0;
#X connect 70 20 53 0;
#X connect 70 21 58 0;
#X connect 70 22 22 0;
#X connect 70 23 28 0;
#X connect 70 24 53 0;
#X connect 70 25 58 0;
#X connect 70 26 22 0;
#X connect 70 27 28 0;
#X connect 70 28 53 0;
#X connect 70 29 58 0;
#X connect 70 30 22 0;
#X connect 70 31 28 0;
#X connect 70 32 53 0;
#X connect 70 33 58 0;
#X connect 71 0 27 0;
#X connect 72 0 19 0;
