#N canvas -11 -12 1366 685 12;
#X obj 398 412 bng 19 250 50 0 empty empty empty 0 -10 0 12 #fcfcfc #000000 #000000;
#X obj 549 421 bng 19 250 50 0 empty empty empty 0 -10 0 12 #fcfcfc #000000 #000000;
#X obj 556 610 noteout 1;
#X msg 554 470 65;
#X obj 730 418 bng 19 250 50 0 empty empty empty 0 -10 0 12 #fcfcfc #000000 #000000;
#X obj 737 596 noteout 1;
#X obj 932 410 bng 19 250 50 0 empty empty empty 0 -10 0 12 #fcfcfc #000000 #000000;
#X obj 939 588 noteout 1;
#X msg 735 467 70;
#X msg 937 459 55;
#X msg 403 461 60;
#X obj 400 601 noteout 1;
#X obj 398 555 spigot;
#X obj 478 550 tgl 19 0 empty empty empty 0 -10 0 12 #fcfcfc #000000 #000000 0 1;
#X obj 548 564 spigot;
#X obj 628 559 tgl 19 0 empty empty empty 0 -10 0 12 #fcfcfc #000000 #000000 0 1;
#X obj 723 556 spigot;
#X obj 803 551 tgl 19 0 empty empty empty 0 -10 0 12 #fcfcfc #000000 #000000 0 1;
#X obj 923 549 spigot;
#X obj 1003 544 tgl 19 0 empty empty empty 0 -10 0 12 #fcfcfc #000000 #000000 0 1;
#X obj 400 512 makenote 80 1;
#X obj 551 521 makenote 80 1;
#X obj 732 518 makenote 80 1;
#X obj 934 510 makenote 80 1;
#X obj 622 118 f;
#X obj 674 119 + 1;
#X floatatom 622 169 5 0 0 0 - - - 0;
#X obj 622 68 metro 1 360 permin;
#X obj 623 26 tgl 19 0 empty empty empty 0 -10 0 12 #fcfcfc #000000 #000000 0 1;
#X obj 398 365 spigot;
#X floatatom 458 248 5 0 0 0 - - - 0;
#X obj 458 277 == 0;
#X floatatom 458 318 5 0 0 0 - - - 0;
#X obj 458 216 % 2;
#X obj 549 373 spigot;
#X floatatom 609 256 5 0 0 0 - - - 0;
#X obj 609 285 == 0;
#X floatatom 609 326 5 0 0 0 - - - 0;
#X obj 609 224 % 4;
#X obj 713 375 spigot;
#X floatatom 773 258 5 0 0 0 - - - 0;
#X obj 773 287 == 0;
#X floatatom 773 328 5 0 0 0 - - - 0;
#X obj 773 226 % 8;
#X obj 861 379 spigot;
#X floatatom 921 262 5 0 0 0 - - - 0;
#X obj 921 291 == 0;
#X floatatom 921 332 5 0 0 0 - - - 0;
#X obj 921 230 % 12;
#X connect 0 0 10 0;
#X connect 1 0 3 0;
#X connect 3 0 21 0;
#X connect 4 0 8 0;
#X connect 6 0 9 0;
#X connect 8 0 22 0;
#X connect 9 0 23 0;
#X connect 10 0 20 0;
#X connect 12 0 11 0;
#X connect 12 0 11 1;
#X connect 13 0 12 1;
#X connect 14 0 2 0;
#X connect 14 0 2 1;
#X connect 15 0 14 1;
#X connect 16 0 5 0;
#X connect 16 0 5 1;
#X connect 17 0 16 1;
#X connect 18 0 7 0;
#X connect 18 0 7 1;
#X connect 19 0 18 1;
#X connect 20 0 12 0;
#X connect 21 0 14 0;
#X connect 22 0 16 0;
#X connect 23 0 18 0;
#X connect 24 0 25 0;
#X connect 24 0 26 0;
#X connect 25 0 24 1;
#X connect 26 0 33 0;
#X connect 26 0 38 0;
#X connect 26 0 43 0;
#X connect 26 0 48 0;
#X connect 27 0 24 0;
#X connect 28 0 27 0;
#X connect 29 0 0 0;
#X connect 30 0 31 0;
#X connect 31 0 32 0;
#X connect 32 0 29 0;
#X connect 32 0 29 1;
#X connect 33 0 30 0;
#X connect 34 0 1 0;
#X connect 35 0 36 0;
#X connect 36 0 37 0;
#X connect 37 0 34 0;
#X connect 37 0 34 1;
#X connect 38 0 35 0;
#X connect 39 0 4 0;
#X connect 40 0 41 0;
#X connect 41 0 42 0;
#X connect 42 0 39 0;
#X connect 42 0 39 1;
#X connect 43 0 40 0;
#X connect 44 0 6 0;
#X connect 45 0 46 0;
#X connect 46 0 47 0;
#X connect 47 0 44 0;
#X connect 47 0 44 1;
#X connect 48 0 45 0;
