#N canvas 0 0 1366 685 12;
#X obj 283 287 bng 19 250 50 0 empty empty empty 0 -10 0 12 #fcfcfc #000000 #000000;
#X obj 513 290 bng 19 250 50 0 empty empty empty 0 -10 0 12 #fcfcfc #000000 #000000;
#X obj 520 479 noteout 1;
#X msg 518 339 65;
#X obj 723 289 bng 19 250 50 0 empty empty empty 0 -10 0 12 #fcfcfc #000000 #000000;
#X obj 730 467 noteout 1;
#X obj 925 281 bng 19 250 50 0 empty empty empty 0 -10 0 12 #fcfcfc #000000 #000000;
#X obj 932 459 noteout 1;
#X obj 660 81 tgl 19 0 empty empty empty 0 -10 0 12 #fcfcfc #000000 #000000 0 1;
#X obj 513 248 metro 0.2 1000 msec;
#X obj 925 239 metro 1 1000 msec;
#X obj 723 247 metro 0.8 1000 msec;
#X obj 285 387 makenote 80 100;
#X obj 283 245 metro 0.5 300 msec;
#X obj 515 390 makenote 80 100;
#X obj 725 389 makenote 80 100;
#X obj 927 381 makenote 80 100;
#X msg 728 338 70;
#X msg 930 330 55;
#X msg 288 336 60;
#X obj 285 476 noteout 1;
#X obj 283 430 spigot;
#X obj 363 425 tgl 19 0 empty empty empty 0 -10 0 12 #fcfcfc #000000 #000000 0 1;
#X obj 512 433 spigot;
#X obj 592 428 tgl 19 0 empty empty empty 0 -10 0 12 #fcfcfc #000000 #000000 0 1;
#X obj 716 427 spigot;
#X obj 796 422 tgl 19 0 empty empty empty 0 -10 0 12 #fcfcfc #000000 #000000 0 1;
#X obj 916 420 spigot;
#X obj 996 415 tgl 19 0 empty empty empty 0 -10 0 12 #fcfcfc #000000 #000000 0 1;
#X connect 0 0 19 0;
#X connect 1 0 3 0;
#X connect 3 0 14 0;
#X connect 4 0 17 0;
#X connect 6 0 18 0;
#X connect 8 0 9 0;
#X connect 8 0 11 0;
#X connect 8 0 10 0;
#X connect 8 0 13 0;
#X connect 9 0 1 0;
#X connect 10 0 6 0;
#X connect 11 0 4 0;
#X connect 12 0 21 0;
#X connect 13 0 0 0;
#X connect 14 0 23 0;
#X connect 15 0 25 0;
#X connect 16 0 27 0;
#X connect 17 0 15 0;
#X connect 18 0 16 0;
#X connect 19 0 12 0;
#X connect 21 0 20 0;
#X connect 21 0 20 1;
#X connect 22 0 21 1;
#X connect 23 0 2 0;
#X connect 23 0 2 1;
#X connect 24 0 23 1;
#X connect 25 0 5 0;
#X connect 25 0 5 1;
#X connect 26 0 25 1;
#X connect 27 0 7 0;
#X connect 27 0 7 1;
#X connect 28 0 27 1;
